<svg width="24" height="21" viewBox="0 0 24 21" fill="none" xmlns="http://www.w3.org/2000/svg">
<path d="M23.584 1.16L23.008 5.264C21.856 5.168 20.92 5.36 20.2 5.84C19.48 6.296 18.976 6.968 18.688 7.856C18.424 8.72 18.376 9.728 18.544 10.88H23.584V20.672H13.792V10.88C13.792 7.424 14.596 4.808 16.204 3.032C17.812 1.256 20.272 0.631999 23.584 1.16ZM10.552 1.16L9.976 5.264C8.824 5.168 7.888 5.36 7.168 5.84C6.448 6.296 5.944 6.968 5.656 7.856C5.392 8.72 5.344 9.728 5.512 10.88H10.552V20.672H0.76V10.88C0.76 7.424 1.564 4.808 3.172 3.032C4.78 1.256 7.24 0.631999 10.552 1.16Z" fill="#2EC5CE"/>
</svg>