<svg width="7" height="10" viewBox="0 0 7 10" fill="none" xmlns="http://www.w3.org/2000/svg">
<path d="M3.3605 9.165C3.8885 9.165 4.356 9.05867 4.763 8.846C5.17367 8.63333 5.4945 8.33817 5.7255 7.9605C5.96017 7.58283 6.0775 7.15017 6.0775 6.6625C6.0775 6.28483 6.0005 5.92917 5.8465 5.5955C5.6925 5.25817 5.47067 4.97583 5.181 4.7485C5.63567 4.31217 5.863 3.7805 5.863 3.1535C5.863 2.69883 5.75483 2.30467 5.5385 1.971C5.32583 1.63733 5.03067 1.37883 4.653 1.1955C4.279 1.0085 3.84817 0.915 3.3605 0.915C2.87283 0.915 2.44017 1.0085 2.0625 1.1955C1.6885 1.37883 1.39517 1.63733 1.1825 1.971C0.969833 2.30467 0.8635 2.69883 0.8635 3.1535C0.8635 3.4725 0.922167 3.76583 1.0395 4.0335C1.1605 4.2975 1.33283 4.53583 1.5565 4.7485C1.2595 4.9795 1.03583 5.26183 0.8855 5.5955C0.735167 5.92917 0.66 6.28483 0.66 6.6625C0.66 7.15383 0.7755 7.58833 1.0065 7.966C1.2375 8.34 1.5565 8.63333 1.9635 8.846C2.3705 9.05867 2.83617 9.165 3.3605 9.165ZM3.3605 4.1435C3.03783 4.1435 2.77383 4.06283 2.5685 3.9015C2.36683 3.7365 2.266 3.48717 2.266 3.1535C2.266 2.81983 2.36683 2.57233 2.5685 2.411C2.77383 2.246 3.03783 2.1635 3.3605 2.1635C3.68683 2.1635 3.95083 2.246 4.1525 2.411C4.35783 2.57233 4.4605 2.81983 4.4605 3.1535C4.4605 3.48717 4.35783 3.7365 4.1525 3.9015C3.95083 4.06283 3.68683 4.1435 3.3605 4.1435ZM3.3605 7.9165C2.97183 7.9165 2.65833 7.81017 2.42 7.5975C2.18167 7.38483 2.0625 7.07317 2.0625 6.6625C2.0625 6.2555 2.18167 5.94383 2.42 5.7275C2.65833 5.51117 2.97183 5.403 3.3605 5.403C3.75283 5.403 4.07 5.51117 4.312 5.7275C4.554 5.94383 4.675 6.2555 4.675 6.6625C4.675 7.07317 4.554 7.38483 4.312 7.5975C4.07 7.81017 3.75283 7.9165 3.3605 7.9165Z" fill="white"/>
</svg>
