<svg width="24" height="25" viewBox="0 0 24 25" fill="none" xmlns="http://www.w3.org/2000/svg">
<path d="M3.58579 8.1969C3.21071 8.57197 3 9.08068 3 9.61111V18.6111C3 19.1415 3.21071 19.6503 3.58579 20.0253C3.96086 20.4004 4.46957 20.6111 5 20.6111H19C19.5304 20.6111 20.0391 20.4004 20.4142 20.0253C20.7893 19.6503 21 19.1415 21 18.6111V9.61111C21 9.08068 20.7893 8.57197 20.4142 8.1969C20.0391 7.82183 19.5304 7.61111 19 7.61111H18.07C17.7408 7.61116 17.4167 7.52996 17.1264 7.3747C16.8362 7.21945 16.5887 6.99495 16.406 6.72111L15.594 5.50111C15.4113 5.22728 15.1638 5.00278 14.8736 4.84752C14.5833 4.69227 14.2592 4.61107 13.93 4.61111H10.07C9.74082 4.61107 9.41671 4.69227 9.12643 4.84752C8.83616 5.00278 8.5887 5.22728 8.406 5.50111L7.594 6.72111C7.4113 6.99495 7.16384 7.21945 6.87357 7.3747C6.58329 7.52996 6.25918 7.61116 5.93 7.61111H5C4.46957 7.61111 3.96086 7.82183 3.58579 8.1969Z" stroke="#8C30F5" stroke-width="2" stroke-linecap="round" stroke-linejoin="round"/>
<path d="M14.1213 15.7324C14.6839 15.1698 15 14.4068 15 13.6111C15 12.8155 14.6839 12.0524 14.1213 11.4898C13.5587 10.9272 12.7956 10.6111 12 10.6111C11.2044 10.6111 10.4413 10.9272 9.87868 11.4898C9.31607 12.0524 9 12.8155 9 13.6111C9 14.4068 9.31607 15.1698 9.87868 15.7324C10.4413 16.295 11.2044 16.6111 12 16.6111C12.7956 16.6111 13.5587 16.295 14.1213 15.7324Z" stroke="#8C30F5" stroke-width="2" stroke-linecap="round" stroke-linejoin="round"/>
</svg>
