<svg width="16" height="20" viewBox="0 0 16 20" fill="none" xmlns="http://www.w3.org/2000/svg">
<path d="M10.8284 7.94907C11.5786 7.2406 12 6.27971 12 5.27778C12 4.27585 11.5786 3.31496 10.8284 2.60649C10.0783 1.89801 9.06087 1.5 8 1.5C6.93913 1.5 5.92172 1.89801 5.17157 2.60649C4.42143 3.31496 4 4.27585 4 5.27778C4 6.27971 4.42143 7.2406 5.17157 7.94907C5.92172 8.65754 6.93913 9.05556 8 9.05556C9.06087 9.05556 10.0783 8.65754 10.8284 7.94907Z" stroke="#DED3FF" stroke-width="2" stroke-linecap="round" stroke-linejoin="round"/>
<path d="M3.05025 13.8252C4.36301 12.5854 6.14348 11.8889 8 11.8889C9.85651 11.8889 11.637 12.5854 12.9497 13.8252C14.2625 15.0651 15 16.7466 15 18.5H1C1 16.7466 1.7375 15.0651 3.05025 13.8252Z" stroke="#DED3FF" stroke-width="2" stroke-linecap="round" stroke-linejoin="round"/>
</svg>
